<?xml version="1.0" standalone="no"?>
<svg version="1.1" xmlns="http://www.w3.org/2000/svg"
 width="200" height="200" viewBox="0 0 1080 1080"
 preserveAspectRatio="xMidYMid meet">
<g transform="translate(0,1080) scale(0.1,-0.1)"
fill="#E65100" stroke="none">
<path d="M6661 10288 c-22 -40 -184 -334 -359 -653 l-319 -580 -1033 -10
-1033 -10 -119 -163 c-119 -163 -119 -163 -112 -208 3 -24 11 -44 18 -44 69 0
2070 -51 2072 -53 8 -7 -226 -591 -240 -599 -36 -20 -168 -10 -270 22 -91 28
-110 30 -245 30 -165 0 -285 -13 -721 -75 -578 -83 -528 -80 -1275 -80 -706 0
-770 3 -915 47 -36 11 -80 29 -98 40 -19 12 -37 17 -42 12 -4 -5 -42 -62 -83
-126 l-76 -117 47 -15 c77 -25 210 -54 363 -78 125 -19 183 -22 444 -22 377
-1 774 31 1300 104 299 41 445 52 645 48 174 -3 176 -3 249 -37 91 -41 136
-54 276 -81 211 -40 456 -36 530 10 l31 19 195 -43 c412 -92 984 -182 1419
-223 230 -21 921 -24 1195 -5 228 16 569 49 704 68 57 7 106 12 108 10 9 -8
552 -4481 545 -4487 -17 -17 -216 -72 -321 -89 -126 -21 -483 -62 -707 -81
-87 -7 -246 -9 -420 -6 -351 6 -407 15 -974 147 -486 113 -679 145 -980 160
-102 5 -250 15 -330 21 -252 20 -699 -8 -1120 -72 -121 -18 -218 -22 -940 -32
-1099 -16 -2488 -16 -2740 1 -186 13 -371 30 -377 35 -2 2 721 4507 742 4625
6 32 6 32 -36 32 -34 0 -67 -16 -199 -95 -88 -53 -161 -103 -164 -113 -3 -9
-260 -1146 -571 -2527 -311 -1380 -568 -2518 -571 -2527 -5 -17 60 -18 1234
-20 l1239 -3 -287 -615 c-158 -338 -287 -616 -286 -617 7 -8 951 -72 957 -66
4 5 152 318 329 698 177 380 325 693 329 697 4 5 30 -16 58 -45 l51 -52 -318
-695 c-175 -382 -322 -701 -327 -708 -6 -10 -113 -4 -532 28 -288 22 -526 38
-529 36 -2 -3 -1 -113 3 -245 l8 -240 61 -6 c33 -3 315 -26 626 -51 449 -35
567 -42 573 -32 5 7 203 445 442 973 l433 960 480 -4 480 -3 44 30 c109 74
282 145 441 179 70 15 135 18 447 18 390 -1 424 -3 995 -65 1193 -129 1794
-166 2618 -157 535 5 600 10 807 62 148 37 153 39 146 78 -3 17 -161 1139
-351 2492 -190 1353 -348 2475 -353 2493 -6 31 -20 41 -187 134 l-179 100 -76
-6 c-107 -9 -176 -22 -330 -61 -168 -42 -258 -58 -480 -84 -314 -36 -494 -44
-855 -38 -492 9 -534 16 -760 128 -150 75 -272 112 -475 144 -58 9 -119 19
-136 23 l-32 7 37 82 c20 45 39 84 42 87 3 3 451 -19 995 -49 l989 -55 39 42
c59 66 151 212 185 293 36 85 61 218 61 321 l0 73 -67 -28 c-68 -29 -68 -29
-86 -88 -34 -111 -70 -184 -111 -229 l-41 -44 -1020 80 c-561 44 -1022 76
-1026 72 -3 -4 -52 -124 -109 -267 -57 -143 -106 -264 -110 -268 -4 -5 -21 -2
-38 5 l-30 13 117 292 c64 160 119 294 122 297 3 4 477 -14 1053 -39 576 -25
1053 -42 1058 -39 22 14 77 152 91 229 20 104 32 255 21 255 -5 0 -392 16
-859 35 -1005 40 -1215 53 -1208 71 2 7 123 275 268 596 225 498 261 584 247
590 -9 4 -91 26 -182 48 -91 23 -173 43 -182 46 -13 4 -27 -13 -57 -68z"/>
<path d="M7080 10053 c-17 -37 -120 -266 -228 -508 l-198 -440 35 -6 c20 -4
79 -9 132 -12 l96 -6 176 427 c97 235 183 444 191 464 l16 36 -58 50 c-36 31
-70 52 -94 56 l-38 7 -30 -68z"/>
<path d="M3693 8547 c3 -7 24 -82 47 -165 23 -84 46 -152 49 -152 4 0 401 -18
881 -40 481 -22 877 -37 880 -33 12 14 119 333 112 333 -4 0 -446 16 -982 35
-536 19 -979 35 -984 35 -4 0 -6 -6 -3 -13z"/>
<path d="M4980 7439 c-514 -48 -973 -275 -1329 -655 -475 -507 -660 -1239
-486 -1919 71 -278 210 -558 384 -775 109 -137 368 -380 389 -366 5 3 15 27
22 53 8 27 28 76 47 111 27 53 33 74 33 129 0 86 39 178 137 325 l75 113 -6
95 c-4 52 -15 138 -26 190 -10 52 -22 118 -25 147 l-7 52 -45 7 c-25 4 -113 4
-197 0 -83 -3 -166 -3 -185 2 -31 7 -33 10 -35 55 -1 34 -8 54 -24 70 -21 21
-34 22 -190 27 -202 7 -227 14 -182 55 18 16 47 20 203 27 100 4 194 5 209 2
17 -3 46 -27 73 -59 66 -77 125 -92 233 -60 61 18 115 62 142 115 26 50 57
176 71 287 13 104 1 221 -31 302 -32 82 -63 303 -64 456 -1 124 2 145 21 187
25 55 51 66 118 49 53 -13 115 -14 148 -2 38 15 60 101 55 216 -3 79 -7 98
-25 117 -12 13 -34 49 -49 82 -34 74 -30 135 12 203 72 115 252 135 362 39 99
-87 101 -266 5 -377 -28 -31 -31 -43 -38 -130 l-7 -97 54 -41 c29 -23 79 -53
110 -65 58 -24 142 -86 159 -118 6 -11 7 -60 3 -127 -6 -102 -5 -110 15 -130
31 -31 113 -30 152 3 15 13 50 32 76 41 26 10 72 28 102 41 29 13 63 24 76 24
38 0 69 -47 80 -122 l7 -46 -49 -22 c-26 -11 -61 -34 -78 -50 -32 -31 -99 -53
-209 -70 -38 -6 -89 -21 -115 -33 -44 -21 -46 -24 -52 -72 -10 -82 9 -234 46
-370 43 -158 52 -176 90 -187 33 -10 238 -4 477 14 205 15 298 5 354 -40 59
-48 169 -57 471 -43 224 11 343 26 406 50 32 12 32 13 12 -37 -23 -58 -62 -81
-152 -92 -251 -32 -588 -19 -698 27 -53 22 -83 26 -260 36 -249 13 -466 14
-526 4 -26 -4 -67 -21 -92 -38 -38 -25 -48 -39 -71 -103 -33 -89 -103 -214
-155 -276 -21 -25 -43 -55 -49 -67 -7 -12 -16 -114 -22 -237 -12 -247 -19
-295 -55 -367 -25 -49 -26 -57 -28 -257 -2 -173 1 -213 14 -243 24 -53 126
-176 152 -183 35 -9 264 -7 362 4 628 70 1168 394 1515 910 412 614 461 1418
125 2082 -107 212 -210 353 -385 528 -175 175 -316 278 -528 385 -347 175
-740 250 -1122 214z m1556 -1590 c18 -11 55 -53 81 -92 74 -113 109 -152 222
-247 58 -48 120 -102 136 -120 29 -31 29 -32 11 -46 -11 -8 -34 -14 -51 -14
-26 0 -50 20 -160 130 -72 72 -150 144 -174 160 -45 31 -85 38 -96 20 -15 -24
-193 -164 -230 -181 -22 -10 -55 -19 -73 -19 -44 0 -173 54 -228 97 -52 39
-136 54 -196 34 -34 -11 -106 -75 -179 -160 -33 -38 -39 -41 -87 -41 -40 0
-53 4 -62 19 -22 41 -12 57 71 111 45 29 118 89 163 133 44 44 96 86 114 94
59 25 110 0 222 -106 48 -45 114 -66 172 -54 48 9 195 154 224 220 21 47 55
83 78 83 5 0 24 -9 42 -21z m-146 -937 c160 -35 219 -62 246 -113 20 -40 18
-63 -10 -96 -45 -54 -166 -102 -516 -207 -207 -63 -256 -82 -264 -103 -12 -31
41 -98 144 -184 124 -102 160 -141 160 -172 0 -59 -91 -117 -393 -251 -248
-110 -397 -148 -397 -102 0 21 17 31 117 71 122 49 277 142 351 210 93 86 113
148 67 203 -48 57 -244 141 -414 177 -87 18 -111 30 -111 53 0 40 24 53 155
81 319 71 599 167 659 226 20 21 21 74 1 102 -18 26 -85 48 -210 68 -49 8 -93
15 -97 15 -13 0 -9 38 5 44 6 3 102 4 212 2 154 -3 222 -8 295 -24z"/>
<path d="M4610 7103 c-47 -24 -64 -63 -68 -153 -2 -64 1 -81 20 -115 29 -49
83 -88 112 -79 74 21 146 232 102 299 -34 51 -113 74 -166 48z"/>
<path d="M4478 6168 c-38 -28 -21 -117 29 -155 19 -14 41 -39 49 -54 9 -18 32
-36 63 -50 27 -11 57 -29 67 -40 9 -10 30 -19 45 -19 20 0 36 -10 56 -35 21
-27 36 -35 59 -35 68 0 65 50 -8 118 -27 25 -56 42 -78 46 -40 6 -89 52 -173
161 -54 72 -79 86 -109 63z"/>
<path d="M4846 5514 c-15 -9 -48 -31 -72 -49 -85 -65 -140 -66 -186 -5 -46 63
-116 78 -167 35 -86 -73 -61 -225 71 -430 85 -132 349 -375 408 -375 54 0 118
102 175 280 23 69 28 104 29 190 2 188 -42 301 -134 348 -51 26 -84 27 -124 6z"/>
</g>
</svg>